<svg width="117" height="68" viewBox="0 0 217 178" fill="none" xmlns="http://www.w3.org/2000/svg">
<path d="M192 135.5L186 132L91.5 78.5001" stroke="black" stroke-opacity="0.55" stroke-width="5"/>
<g clip-path="url(#clip0_29_112)">
<path d="M45.5213 13.6875C45.5213 10.0573 46.9594 6.57588 49.5193 4.00898C52.0792 1.44207 55.5511 0 59.1713 0C62.7915 0 66.2635 1.44207 68.8233 4.00898C71.3832 6.57588 72.8213 10.0573 72.8213 13.6875C72.8213 17.3177 71.3832 20.7991 68.8233 23.366C66.2635 25.9329 62.7915 27.375 59.1713 27.375C55.5511 27.375 52.0792 25.9329 49.5193 23.366C46.9594 20.7991 45.5213 17.3177 45.5213 13.6875ZM35.9948 56.8316C35.7104 56.9457 35.4544 57.0598 35.1701 57.1738L32.8951 58.1719C28.2313 60.2535 24.6482 64.2172 23.0273 69.0648L22.2879 71.2891C20.6954 76.0797 15.5482 78.6461 10.7707 77.0492C5.9932 75.4523 3.43383 70.291 5.02633 65.5004L5.7657 63.2762C9.00758 53.5523 16.1738 45.625 25.5013 41.4617L27.7763 40.4637C33.6913 37.8402 40.0898 36.4715 46.5735 36.4715C59.2566 36.4715 70.6885 44.1137 75.5513 55.8336L79.9307 66.3559L86.0163 69.407C90.5094 71.6598 92.3295 77.1348 90.0829 81.6402C87.8363 86.1457 82.3763 87.9707 77.8832 85.718L70.2619 81.9254C67.3329 80.4426 65.0294 77.9902 63.7782 74.9391L61.0482 68.3805L55.5598 87.0582L69.6363 102.457C71.1719 104.139 72.2526 106.164 72.8213 108.388L79.362 134.651C80.5848 139.527 77.6273 144.489 72.736 145.715C67.8448 146.941 62.9251 143.975 61.7023 139.071L55.446 113.948L35.3407 91.9629C31.1319 87.3719 29.5679 80.9559 31.1604 74.9391L35.9663 56.8316H35.9948ZM19.5579 113.492L26.6673 95.6984C27.2644 96.5539 27.9469 97.3523 28.6579 98.1508L40.2319 110.812L36.1085 121.134C35.426 122.845 34.4023 124.414 33.0941 125.725L15.5482 143.32C11.9935 146.884 6.2207 146.884 2.66602 143.32C-0.888672 139.755 -0.888672 133.966 2.66602 130.402L19.5579 113.492Z" fill="black" fill-opacity="0.55"/>
</g>
<g clip-path="url(#clip1_29_112)">
<path d="M175.838 123.456L179.407 102.055C179.7 100.296 181.23 99 183.022 99C184.181 99 185.263 99.54 185.958 100.466L188.569 103.938H196.62C198.582 103.938 200.467 104.724 201.858 106.113L204.639 108.875H213.292C215.347 108.875 217 110.526 217 112.578V116.281C217 123.101 211.468 128.625 204.639 128.625H199.694H197.222H193.931L193.143 133.331L175.838 123.456ZM192.278 138.515V173.062C192.278 175.794 190.068 178 187.333 178H182.389C179.654 178 177.444 175.794 177.444 173.062V155.287C173.736 157.185 169.533 158.25 165.083 158.25C160.633 158.25 156.431 157.185 152.722 155.287V173.062C152.722 175.794 150.513 178 147.778 178H142.833C140.098 178 137.889 175.794 137.889 173.062V137.543C133.439 135.862 129.947 132.097 128.742 127.283L128.155 124.891C127.49 122.253 129.097 119.568 131.755 118.904C134.412 118.241 137.085 119.846 137.75 122.499L138.352 124.891C138.893 127.082 140.871 128.625 143.142 128.625H147.778H150.25H174.941L192.278 138.515ZM199.694 111.344C199.694 110.689 199.434 110.061 198.97 109.598C198.507 109.135 197.878 108.875 197.222 108.875C196.567 108.875 195.938 109.135 195.474 109.598C195.01 110.061 194.75 110.689 194.75 111.344C194.75 111.999 195.01 112.626 195.474 113.089C195.938 113.552 196.567 113.812 197.222 113.812C197.878 113.812 198.507 113.552 198.97 113.089C199.434 112.626 199.694 111.999 199.694 111.344Z" fill="black" fill-opacity="0.55"/>
</g>
<defs>
<clipPath id="clip0_29_112">
<rect width="91" height="146" fill="white"/>
</clipPath>
<clipPath id="clip1_29_112">
<rect width="89" height="79" fill="white" transform="translate(128 99)"/>
</clipPath>
</defs>
</svg>

