<svg width="343" height="221" viewBox="0 0 343 221" fill="none" xmlns="http://www.w3.org/2000/svg">
<path d="M304.3 136.719C304.3 134.406 305.217 132.189 306.848 130.554C308.48 128.919 310.693 128 313 128C315.307 128 317.52 128.919 319.152 130.554C320.783 132.189 321.7 134.406 321.7 136.719C321.7 139.031 320.783 141.249 319.152 142.884C317.52 144.519 315.307 145.438 313 145.438C310.693 145.438 308.48 144.519 306.848 142.884C305.217 141.249 304.3 139.031 304.3 136.719ZM311.55 191.938V215.188C311.55 218.403 308.958 221 305.75 221C302.542 221 299.95 218.403 299.95 215.188V174.663L294.766 183.31C293.117 186.052 289.546 186.942 286.809 185.289C284.073 183.637 283.184 180.058 284.834 177.315L295.401 159.696C298.554 154.447 304.209 151.232 310.318 151.232H315.701C321.809 151.232 327.464 154.447 330.618 159.696L341.184 177.315C342.834 180.058 341.946 183.637 339.209 185.289C336.472 186.942 332.901 186.052 331.252 183.31L326.05 174.663V215.188C326.05 218.403 323.458 221 320.25 221C317.042 221 314.45 218.403 314.45 215.188V191.938H311.55Z" fill="black" fill-opacity="0.55"/>
<path d="M150.333 91.875H152.382C155.029 96.4381 159.989 99.5 165.667 99.5C166.984 99.5 168.278 99.3332 169.5 99.0234V126.188C169.5 128.296 167.787 130 165.667 130C163.546 130 161.833 128.296 161.833 126.188V109.413L145.542 122.375H152.25C154.37 122.375 156.083 124.079 156.083 126.188C156.083 128.296 154.37 130 152.25 130H135C128.651 130 123.5 124.877 123.5 118.562V91.9346C123.5 90.0164 122.063 88.3842 120.146 88.1459L119.199 88.0268C117.103 87.7646 115.606 85.8584 115.869 83.7734C116.133 81.6885 118.049 80.1992 120.146 80.4613L121.092 80.5805C126.842 81.2953 131.167 86.1562 131.167 91.9346V102.097C135.288 95.9377 142.331 91.875 150.333 91.875ZM169.5 95.0322C168.302 95.4492 167.008 95.6875 165.667 95.6875C162.265 95.6875 159.198 94.2102 157.09 91.875C156.646 91.3865 156.251 90.8623 155.904 90.3023C154.802 88.5391 154.167 86.466 154.167 84.25V70.2748C154.167 69.5719 154.73 69.0119 155.436 69H155.46C155.856 69 156.227 69.1906 156.467 69.5004C156.467 69.5004 156.467 69.5004 156.467 69.5123L158 71.5377L161.833 76.625H169.5L173.333 71.5377L174.867 69.5123C174.867 69.5123 174.867 69.5123 174.867 69.5004C175.106 69.1906 175.478 69 175.873 69H175.897C176.604 69.0119 177.167 69.5719 177.167 70.2748V84.25C177.167 86.3111 176.616 88.2531 175.657 89.9211C174.304 92.2801 172.111 94.1148 169.5 95.0322ZM163.75 84.25C163.75 83.7444 163.548 83.2596 163.189 82.9021C162.829 82.5446 162.342 82.3438 161.833 82.3438C161.325 82.3438 160.838 82.5446 160.478 82.9021C160.119 83.2596 159.917 83.7444 159.917 84.25C159.917 84.7556 160.119 85.2404 160.478 85.5979C160.838 85.9554 161.325 86.1562 161.833 86.1562C162.342 86.1562 162.829 85.9554 163.189 85.5979C163.548 85.2404 163.75 84.7556 163.75 84.25ZM169.5 86.1562C170.008 86.1562 170.496 85.9554 170.855 85.5979C171.215 85.2404 171.417 84.7556 171.417 84.25C171.417 83.7444 171.215 83.2596 170.855 82.9021C170.496 82.5446 170.008 82.3438 169.5 82.3438C168.992 82.3438 168.504 82.5446 168.145 82.9021C167.785 83.2596 167.583 83.7444 167.583 84.25C167.583 84.7556 167.785 85.2404 168.145 85.5979C168.504 85.9554 168.992 86.1562 169.5 86.1562Z" fill="black" fill-opacity="0.55"/>
<path d="M78.075 124.599L81.3636 104.823C81.634 103.198 83.0434 102 84.6948 102C85.7625 102 86.759 102.499 87.3997 103.354L89.8056 106.562H97.2226C99.0306 106.562 100.767 107.29 102.049 108.573L104.611 111.125H112.583C114.477 111.125 116 112.651 116 114.547V117.969C116 124.271 110.903 129.375 104.611 129.375H94.7455L94.0195 133.724L78.075 124.599ZM93.2222 138.514V170.438C93.2222 172.961 91.1865 175 88.6667 175H84.1111C81.5913 175 79.5556 172.961 79.5556 170.438V154.012C76.1389 155.766 72.2667 156.75 68.1667 156.75C64.0667 156.75 60.1945 155.766 56.7778 154.012V170.438C56.7778 172.961 54.742 175 52.2222 175H47.6667C45.1469 175 43.1111 172.961 43.1111 170.438V137.616C39.0111 136.062 35.7938 132.583 34.6833 128.135L34.1424 125.925C33.5302 123.487 35.0108 121.006 37.4594 120.393C39.908 119.779 42.3708 121.262 42.983 123.715L43.5382 125.925C44.0365 127.949 45.8587 129.375 47.9514 129.375H77.2493L93.2222 138.514ZM100.056 113.406C100.056 112.801 99.8156 112.221 99.3884 111.793C98.9613 111.365 98.3819 111.125 97.7778 111.125C97.1737 111.125 96.5943 111.365 96.1672 111.793C95.74 112.221 95.5 112.801 95.5 113.406C95.5 114.011 95.74 114.592 96.1672 115.019C96.5943 115.447 97.1737 115.688 97.7778 115.688C98.3819 115.688 98.9613 115.447 99.3884 115.019C99.8156 114.592 100.056 114.011 100.056 113.406Z" fill="black" fill-opacity="0.55"/>
<path d="M111.961 49.9023C111.961 53.418 109.044 56.1719 105.739 56.1719H99.5167L99.6528 87.4609C99.6528 87.9883 99.6139 88.5156 99.5556 89.043V92.207C99.5556 96.5234 96.075 100.02 91.7778 100.02H88.6667C88.4528 100.02 88.2389 100.02 88.025 100C87.7528 100.02 87.4806 100.02 87.2084 100.02L80.8889 100H76.2223C71.925 100 68.4445 96.5039 68.4445 92.1875V75C68.4445 71.543 65.6639 68.75 62.2222 68.75H49.7778C46.3361 68.75 43.5556 71.543 43.5556 75V92.1875C43.5556 96.5039 40.075 100 35.7778 100H24.9084C24.6167 100 24.325 99.9805 24.0334 99.9609C23.8 99.9805 23.5667 100 23.3334 100H20.2222C15.925 100 12.4445 96.5039 12.4445 92.1875V70.3125C12.4445 70.1367 12.4445 69.9414 12.4639 69.7656V56.1523H6.24169C2.74169 56.1523 0.0194702 53.418 0.0194702 49.8828C0.0194702 48.125 0.602804 46.5625 1.96391 45.1953L51.8 1.5625C53.1611 0.195312 54.7167 0 56.0778 0C57.4389 0 58.9945 0.390625 60.1611 1.36719L109.822 45.2148C111.378 46.582 112.156 48.1445 111.961 49.9023Z" fill="black" fill-opacity="0.55"/>
</svg>
