<svg xmlns="http://www.w3.org/2000/svg" width="551" height="603" viewBox="0 0 551 603" fill="none">
  <g filter="url(#filter0_di_45_70)">
    <path d="M167.692 272.681C174.85 249.926 204.148 244.283 219.09 262.782L233.162 280.203L246.544 293.048C266.013 311.735 252.943 344.859 226.089 344.889L211.499 344.906C207.982 344.91 204.494 345.544 201.197 346.778L190.489 350.786C165.356 360.194 141.694 333.86 153.386 309.495L160.365 294.952C160.987 293.656 161.516 292.316 161.948 290.943L167.692 272.681Z" fill="#C7BEB5"/>
    <path d="M153.888 264.999C158.188 276.936 155.799 288.772 148.553 291.437C141.307 294.101 131.946 286.585 127.646 274.649C123.346 262.712 125.734 250.876 132.98 248.211C140.227 245.547 149.587 253.063 153.888 264.999Z" fill="#C7BEB5"/>
    <path d="M180.421 222.085C183.61 234.11 179.37 245.706 170.949 247.985C162.529 250.265 153.117 242.364 149.928 230.339C146.739 218.314 150.979 206.718 159.4 204.439C167.82 202.159 177.232 210.06 180.421 222.085Z" fill="#C7BEB5"/>
    <path d="M259.708 246.141C259.708 258.843 253.456 269.141 245.745 269.141C238.033 269.141 231.782 258.843 231.782 246.141C231.782 233.438 238.033 223.141 245.745 223.141C253.456 223.141 259.708 233.438 259.708 246.141Z" fill="#C7BEB5"/>
    <path d="M220.495 218.31C221.594 231.006 215.445 241.92 206.761 242.688C198.077 243.456 190.146 233.785 189.046 221.089C187.947 208.393 194.095 197.478 202.78 196.711C211.464 195.943 219.395 205.613 220.495 218.31Z" fill="#C7BEB5"/>
    <path d="M314.337 158.68C331.797 142.59 359.962 152.503 363.747 176.071L367.312 198.266L372.544 216.15C380.157 242.168 352.445 264.252 329.173 250.713L316.529 243.358C313.482 241.585 310.148 240.372 306.681 239.775L295.424 237.837C269.002 233.289 261.543 198.53 283.728 183.336L296.969 174.266C298.149 173.458 299.27 172.565 300.323 171.594L314.337 158.68Z" fill="#C7BEB5"/>
    <path d="M306.183 145.054C304 157.564 296.073 166.608 288.479 165.255C280.885 163.902 276.498 152.665 278.681 140.155C280.865 127.646 288.791 118.602 296.385 119.954C303.98 121.307 308.366 132.545 306.183 145.054Z" fill="#C7BEB5"/>
    <path d="M350.4 121.292C347.211 133.317 337.8 141.218 329.379 138.938C320.959 136.659 316.718 125.063 319.908 113.038C323.097 101.013 332.508 93.1123 340.929 95.3918C349.349 97.6712 353.59 109.267 350.4 121.292Z" fill="#C7BEB5"/>
    <path d="M407.159 182.177C400.873 193.178 390.362 198.937 383.684 195.042C377.006 191.147 376.688 179.071 382.975 168.07C389.261 157.07 399.771 151.31 406.45 155.205C413.128 159.101 413.446 171.176 407.159 182.177Z" fill="#C7BEB5"/>
    <path d="M386.973 138.266C381.642 149.817 370.915 156.163 363.015 152.441C355.114 148.719 353.031 136.338 358.363 124.787C363.694 113.237 374.421 106.89 382.321 110.612C390.222 114.334 392.305 126.715 386.973 138.266Z" fill="#C7BEB5"/>
    <path d="M102.885 497.398C100.962 497.398 100 496.439 100 494.521V440.394C100 438.476 100.962 437.516 102.885 437.516H124.313C129.655 437.516 133.715 438.902 136.492 441.673C139.27 444.444 140.659 448.494 140.659 453.823V456.564C140.659 461.862 139.27 465.912 136.492 468.714C133.715 471.485 129.655 472.87 124.313 472.87H105.769V494.521C105.769 496.439 104.808 497.398 102.885 497.398ZM105.769 467.115H124.313C128.067 467.115 130.769 466.293 132.417 464.648C134.066 462.973 134.89 460.279 134.89 456.564V453.823C134.89 450.108 134.066 447.428 132.417 445.784C130.769 444.109 128.067 443.272 124.313 443.272H105.769V467.115Z" fill="#C7BEB5"/>
    <path d="M155.365 477.575V480.544C155.365 484.716 156.174 487.608 157.792 489.222C159.44 490.836 162.371 491.643 166.583 491.643H174.092C177.725 491.643 180.365 491.217 182.013 490.364C183.692 489.512 184.715 488.035 185.081 485.934C185.295 485.02 185.63 484.335 186.088 483.878C186.546 483.421 187.233 483.193 188.149 483.193C189.095 483.193 189.812 483.452 190.301 483.97C190.82 484.457 191.003 485.188 190.85 486.162C190.362 489.968 188.729 492.8 185.951 494.658C183.204 496.485 179.251 497.398 174.092 497.398H166.583C160.753 497.398 156.464 496.028 153.717 493.288C150.97 490.547 149.596 486.299 149.596 480.544V470.129C149.596 464.222 150.97 459.913 153.717 457.203C156.464 454.462 160.753 453.123 166.583 453.183H174.092C179.953 453.183 184.242 454.554 186.958 457.294C189.705 460.005 191.079 464.283 191.079 470.129V474.697C191.079 476.616 190.118 477.575 188.195 477.575H155.365ZM166.583 458.939C162.371 458.878 159.44 459.654 157.792 461.268C156.174 462.882 155.365 465.836 155.365 470.129V471.82H185.31V470.129C185.31 465.897 184.501 462.974 182.883 461.36C181.265 459.746 178.335 458.939 174.092 458.939H166.583Z" fill="#C7BEB5"/>
    <path d="M223.84 497.398C218.071 497.398 213.843 496.059 211.157 493.379C208.471 490.699 207.127 486.512 207.127 480.818V458.939H201.999C200.076 458.939 199.115 457.98 199.115 456.061C199.115 454.143 200.076 453.183 201.999 453.183H207.127V444.414C207.127 442.495 208.089 441.536 210.012 441.536C211.935 441.536 212.897 442.495 212.897 444.414V453.183H224.069C225.992 453.183 226.953 454.143 226.953 456.061C226.953 457.98 225.992 458.939 224.069 458.939H212.897V480.818C212.897 484.929 213.69 487.761 215.278 489.314C216.865 490.867 219.719 491.643 223.84 491.643C224.847 491.643 225.58 491.887 226.038 492.374C226.526 492.831 226.77 493.546 226.77 494.521C226.77 496.439 225.793 497.398 223.84 497.398Z" fill="#C7BEB5"/>
    <path d="M239.765 497.398C237.812 497.398 236.835 496.439 236.835 494.521C236.835 494.064 236.942 493.623 237.155 493.196C237.369 492.77 237.674 492.267 238.071 491.689L275.525 442.358V443.272H249.472C247.06 443.272 245.214 443.713 243.932 444.596C242.65 445.449 241.826 446.85 241.459 448.799C241.307 449.682 241.001 450.367 240.543 450.854C240.086 451.311 239.384 451.539 238.437 451.539C237.522 451.539 236.789 451.28 236.239 450.763C235.721 450.214 235.522 449.468 235.644 448.524C236.163 444.931 237.583 442.206 239.902 440.348C242.253 438.46 245.443 437.516 249.472 437.516H279.875C281.798 437.516 282.759 438.476 282.759 440.394C282.759 440.912 282.683 441.399 282.53 441.856C282.378 442.312 282.072 442.83 281.614 443.409L244.344 492.694V491.643H271.908C274.411 491.643 276.303 491.217 277.585 490.364C278.867 489.481 279.661 488.065 279.966 486.116C280.18 485.203 280.516 484.518 280.973 484.061C281.431 483.604 282.103 483.376 282.988 483.376C283.965 483.376 284.713 483.635 285.232 484.152C285.751 484.67 285.949 485.416 285.827 486.39C284.82 493.729 280.18 497.398 271.908 497.398H239.765Z" fill="#C7BEB5"/>
    <path d="M312.619 497.398C306.789 497.398 302.5 496.028 299.753 493.288C297.005 490.547 295.632 486.299 295.632 480.544V470.129C295.632 464.252 297.005 459.959 299.753 457.249C302.5 454.508 306.789 453.153 312.619 453.183H320.128C325.989 453.183 330.277 454.554 332.994 457.294C335.741 460.005 337.115 464.283 337.115 470.129V480.452C337.115 486.269 335.741 490.547 332.994 493.288C330.277 496.028 325.989 497.398 320.128 497.398H312.619ZM301.401 480.544C301.401 484.716 302.21 487.608 303.828 489.222C305.476 490.836 308.406 491.643 312.619 491.643H320.128C324.371 491.643 327.301 490.836 328.919 489.222C330.537 487.578 331.346 484.655 331.346 480.452V470.129C331.346 465.897 330.537 462.974 328.919 461.36C327.301 459.746 324.371 458.939 320.128 458.939H312.619C309.811 458.908 307.582 459.243 305.934 459.944C304.316 460.614 303.156 461.771 302.454 463.415C301.752 465.029 301.401 467.267 301.401 470.129V480.544Z" fill="#C7BEB5"/>
    <path d="M356.234 497.398C354.311 497.398 353.349 496.439 353.349 494.521V456.061C353.349 454.143 354.311 453.183 356.234 453.183C358.157 453.183 359.118 454.143 359.118 456.061V459.441C362.14 455.269 367.223 453.183 374.366 453.183H376.93C382.79 453.183 387.079 454.554 389.796 457.294C392.543 460.005 393.917 464.283 393.917 470.129V494.521C393.917 496.439 392.955 497.398 391.032 497.398C389.109 497.398 388.147 496.439 388.147 494.521V470.129C388.147 465.897 387.323 462.974 385.675 461.36C384.057 459.746 381.142 458.939 376.93 458.939H374.366C370.001 458.939 366.46 459.578 363.743 460.857C361.026 462.136 359.485 464.131 359.118 466.841V494.521C359.118 496.439 358.157 497.398 356.234 497.398Z" fill="#C7BEB5"/>
    <path d="M415.064 477.575V480.544C415.064 484.716 415.873 487.608 417.491 489.222C419.139 490.836 422.069 491.643 426.282 491.643H433.791C437.423 491.643 440.064 491.217 441.712 490.364C443.391 489.512 444.413 488.035 444.78 485.934C444.993 485.02 445.329 484.335 445.787 483.878C446.245 483.421 446.932 483.193 447.847 483.193C448.794 483.193 449.511 483.452 449.999 483.97C450.518 484.457 450.701 485.188 450.549 486.162C450.06 489.968 448.427 492.8 445.65 494.658C442.902 496.485 438.949 497.398 433.791 497.398H426.282C420.451 497.398 416.163 496.028 413.415 493.288C410.668 490.547 409.295 486.299 409.295 480.544V470.129C409.295 464.222 410.668 459.913 413.415 457.203C416.163 454.462 420.451 453.123 426.282 453.183H433.791C439.651 453.183 443.94 454.554 446.657 457.294C449.404 460.005 450.778 464.283 450.778 470.129V474.697C450.778 476.616 449.816 477.575 447.893 477.575H415.064ZM426.282 458.939C422.069 458.878 419.139 459.654 417.491 461.268C415.873 462.882 415.064 465.836 415.064 470.129V471.82H445.009V470.129C445.009 465.897 444.2 462.974 442.582 461.36C440.964 459.746 438.034 458.939 433.791 458.939H426.282Z" fill="#C7BEB5"/>
    <path d="M167.692 272.681C174.85 249.926 204.148 244.283 219.09 262.782L233.162 280.203L246.544 293.048C266.013 311.735 252.943 344.859 226.089 344.889L211.499 344.906C207.982 344.91 204.494 345.544 201.197 346.778L190.489 350.786C165.356 360.194 141.694 333.86 153.386 309.495L160.365 294.952C160.987 293.656 161.516 292.316 161.948 290.943L167.692 272.681Z" fill="#C7BEB5"/>
    <path d="M153.888 264.999C158.188 276.936 155.799 288.772 148.553 291.437C141.307 294.101 131.946 286.585 127.646 274.649C123.346 262.712 125.734 250.876 132.98 248.211C140.227 245.547 149.587 253.063 153.888 264.999Z" fill="#C7BEB5"/>
    <path d="M180.421 222.085C183.61 234.11 179.37 245.706 170.949 247.985C162.529 250.265 153.117 242.364 149.928 230.339C146.739 218.314 150.979 206.718 159.4 204.439C167.82 202.159 177.232 210.06 180.421 222.085Z" fill="#C7BEB5"/>
    <path d="M259.708 246.141C259.708 258.843 253.456 269.141 245.745 269.141C238.033 269.141 231.782 258.843 231.782 246.141C231.782 233.438 238.033 223.141 245.745 223.141C253.456 223.141 259.708 233.438 259.708 246.141Z" fill="#C7BEB5"/>
    <path d="M220.495 218.31C221.594 231.006 215.445 241.92 206.761 242.688C198.077 243.456 190.146 233.785 189.046 221.089C187.947 208.393 194.095 197.478 202.78 196.711C211.464 195.943 219.395 205.613 220.495 218.31Z" fill="#C7BEB5"/>
    <path d="M314.337 158.68C331.797 142.59 359.962 152.503 363.747 176.071L367.312 198.266L372.544 216.15C380.157 242.168 352.445 264.252 329.173 250.713L316.529 243.358C313.482 241.585 310.148 240.372 306.681 239.775L295.424 237.837C269.002 233.289 261.543 198.53 283.728 183.336L296.969 174.266C298.149 173.458 299.27 172.565 300.323 171.594L314.337 158.68Z" fill="#C7BEB5"/>
    <path d="M306.183 145.054C304 157.564 296.073 166.608 288.479 165.255C280.885 163.902 276.498 152.665 278.681 140.155C280.865 127.646 288.791 118.602 296.385 119.954C303.98 121.307 308.366 132.545 306.183 145.054Z" fill="#C7BEB5"/>
    <path d="M350.4 121.292C347.211 133.317 337.8 141.218 329.379 138.938C320.959 136.659 316.718 125.063 319.908 113.038C323.097 101.013 332.508 93.1123 340.929 95.3918C349.349 97.6712 353.59 109.267 350.4 121.292Z" fill="#C7BEB5"/>
    <path d="M407.159 182.177C400.873 193.178 390.362 198.937 383.684 195.042C377.006 191.147 376.688 179.071 382.975 168.07C389.261 157.07 399.771 151.31 406.45 155.205C413.128 159.101 413.446 171.176 407.159 182.177Z" fill="#C7BEB5"/>
    <path d="M386.973 138.266C381.642 149.817 370.915 156.163 363.015 152.441C355.114 148.719 353.031 136.338 358.363 124.787C363.694 113.237 374.421 106.89 382.321 110.612C390.222 114.334 392.305 126.715 386.973 138.266Z" fill="#C7BEB5"/>
    <path d="M102.885 497.398C100.962 497.398 100 496.439 100 494.521V440.394C100 438.476 100.962 437.516 102.885 437.516H124.313C129.655 437.516 133.715 438.902 136.492 441.673C139.27 444.444 140.659 448.494 140.659 453.823V456.564C140.659 461.862 139.27 465.912 136.492 468.714C133.715 471.485 129.655 472.87 124.313 472.87H105.769V494.521C105.769 496.439 104.808 497.398 102.885 497.398ZM105.769 467.115H124.313C128.067 467.115 130.769 466.293 132.417 464.648C134.066 462.973 134.89 460.279 134.89 456.564V453.823C134.89 450.108 134.066 447.428 132.417 445.784C130.769 444.109 128.067 443.272 124.313 443.272H105.769V467.115Z" fill="#C7BEB5"/>
    <path d="M155.365 477.575V480.544C155.365 484.716 156.174 487.608 157.792 489.222C159.44 490.836 162.371 491.643 166.583 491.643H174.092C177.725 491.643 180.365 491.217 182.013 490.364C183.692 489.512 184.715 488.035 185.081 485.934C185.295 485.02 185.63 484.335 186.088 483.878C186.546 483.421 187.233 483.193 188.149 483.193C189.095 483.193 189.812 483.452 190.301 483.97C190.82 484.457 191.003 485.188 190.85 486.162C190.362 489.968 188.729 492.8 185.951 494.658C183.204 496.485 179.251 497.398 174.092 497.398H166.583C160.753 497.398 156.464 496.028 153.717 493.288C150.97 490.547 149.596 486.299 149.596 480.544V470.129C149.596 464.222 150.97 459.913 153.717 457.203C156.464 454.462 160.753 453.123 166.583 453.183H174.092C179.953 453.183 184.242 454.554 186.958 457.294C189.705 460.005 191.079 464.283 191.079 470.129V474.697C191.079 476.616 190.118 477.575 188.195 477.575H155.365ZM166.583 458.939C162.371 458.878 159.44 459.654 157.792 461.268C156.174 462.882 155.365 465.836 155.365 470.129V471.82H185.31V470.129C185.31 465.897 184.501 462.974 182.883 461.36C181.265 459.746 178.335 458.939 174.092 458.939H166.583Z" fill="#C7BEB5"/>
    <path d="M223.84 497.398C218.071 497.398 213.843 496.059 211.157 493.379C208.471 490.699 207.127 486.512 207.127 480.818V458.939H201.999C200.076 458.939 199.115 457.98 199.115 456.061C199.115 454.143 200.076 453.183 201.999 453.183H207.127V444.414C207.127 442.495 208.089 441.536 210.012 441.536C211.935 441.536 212.897 442.495 212.897 444.414V453.183H224.069C225.992 453.183 226.953 454.143 226.953 456.061C226.953 457.98 225.992 458.939 224.069 458.939H212.897V480.818C212.897 484.929 213.69 487.761 215.278 489.314C216.865 490.867 219.719 491.643 223.84 491.643C224.847 491.643 225.58 491.887 226.038 492.374C226.526 492.831 226.77 493.546 226.77 494.521C226.77 496.439 225.793 497.398 223.84 497.398Z" fill="#C7BEB5"/>
    <path d="M239.765 497.398C237.812 497.398 236.835 496.439 236.835 494.521C236.835 494.064 236.942 493.623 237.155 493.196C237.369 492.77 237.674 492.267 238.071 491.689L275.525 442.358V443.272H249.472C247.06 443.272 245.214 443.713 243.932 444.596C242.65 445.449 241.826 446.85 241.459 448.799C241.307 449.682 241.001 450.367 240.543 450.854C240.086 451.311 239.384 451.539 238.437 451.539C237.522 451.539 236.789 451.28 236.239 450.763C235.721 450.214 235.522 449.468 235.644 448.524C236.163 444.931 237.583 442.206 239.902 440.348C242.253 438.46 245.443 437.516 249.472 437.516H279.875C281.798 437.516 282.759 438.476 282.759 440.394C282.759 440.912 282.683 441.399 282.53 441.856C282.378 442.312 282.072 442.83 281.614 443.409L244.344 492.694V491.643H271.908C274.411 491.643 276.303 491.217 277.585 490.364C278.867 489.481 279.661 488.065 279.966 486.116C280.18 485.203 280.516 484.518 280.973 484.061C281.431 483.604 282.103 483.376 282.988 483.376C283.965 483.376 284.713 483.635 285.232 484.152C285.751 484.67 285.949 485.416 285.827 486.39C284.82 493.729 280.18 497.398 271.908 497.398H239.765Z" fill="#C7BEB5"/>
    <path d="M312.619 497.398C306.789 497.398 302.5 496.028 299.753 493.288C297.005 490.547 295.632 486.299 295.632 480.544V470.129C295.632 464.252 297.005 459.959 299.753 457.249C302.5 454.508 306.789 453.153 312.619 453.183H320.128C325.989 453.183 330.277 454.554 332.994 457.294C335.741 460.005 337.115 464.283 337.115 470.129V480.452C337.115 486.269 335.741 490.547 332.994 493.288C330.277 496.028 325.989 497.398 320.128 497.398H312.619ZM301.401 480.544C301.401 484.716 302.21 487.608 303.828 489.222C305.476 490.836 308.406 491.643 312.619 491.643H320.128C324.371 491.643 327.301 490.836 328.919 489.222C330.537 487.578 331.346 484.655 331.346 480.452V470.129C331.346 465.897 330.537 462.974 328.919 461.36C327.301 459.746 324.371 458.939 320.128 458.939H312.619C309.811 458.908 307.582 459.243 305.934 459.944C304.316 460.614 303.156 461.771 302.454 463.415C301.752 465.029 301.401 467.267 301.401 470.129V480.544Z" fill="#C7BEB5"/>
    <path d="M356.234 497.398C354.311 497.398 353.349 496.439 353.349 494.521V456.061C353.349 454.143 354.311 453.183 356.234 453.183C358.157 453.183 359.118 454.143 359.118 456.061V459.441C362.14 455.269 367.223 453.183 374.366 453.183H376.93C382.79 453.183 387.079 454.554 389.796 457.294C392.543 460.005 393.917 464.283 393.917 470.129V494.521C393.917 496.439 392.955 497.398 391.032 497.398C389.109 497.398 388.147 496.439 388.147 494.521V470.129C388.147 465.897 387.323 462.974 385.675 461.36C384.057 459.746 381.142 458.939 376.93 458.939H374.366C370.001 458.939 366.46 459.578 363.743 460.857C361.026 462.136 359.485 464.131 359.118 466.841V494.521C359.118 496.439 358.157 497.398 356.234 497.398Z" fill="#C7BEB5"/>
    <path d="M415.064 477.575V480.544C415.064 484.716 415.873 487.608 417.491 489.222C419.139 490.836 422.069 491.643 426.282 491.643H433.791C437.423 491.643 440.064 491.217 441.712 490.364C443.391 489.512 444.413 488.035 444.78 485.934C444.993 485.02 445.329 484.335 445.787 483.878C446.245 483.421 446.932 483.193 447.847 483.193C448.794 483.193 449.511 483.452 449.999 483.97C450.518 484.457 450.701 485.188 450.549 486.162C450.06 489.968 448.427 492.8 445.65 494.658C442.902 496.485 438.949 497.398 433.791 497.398H426.282C420.451 497.398 416.163 496.028 413.415 493.288C410.668 490.547 409.295 486.299 409.295 480.544V470.129C409.295 464.222 410.668 459.913 413.415 457.203C416.163 454.462 420.451 453.123 426.282 453.183H433.791C439.651 453.183 443.94 454.554 446.657 457.294C449.404 460.005 450.778 464.283 450.778 470.129V474.697C450.778 476.616 449.816 477.575 447.893 477.575H415.064ZM426.282 458.939C422.069 458.878 419.139 459.654 417.491 461.268C415.873 462.882 415.064 465.836 415.064 470.129V471.82H445.009V470.129C445.009 465.897 444.2 462.974 442.582 461.36C440.964 459.746 438.034 458.939 433.791 458.939H426.282Z" fill="#C7BEB5"/>
  </g>
  <defs>
    <filter id="filter0_di_45_70" x="0" y="0" width="550.778" height="602.398" filterUnits="userSpaceOnUse" color-interpolation-filters="sRGB">
      <feFlood flood-opacity="0" result="BackgroundImageFix"/>
      <feColorMatrix in="SourceAlpha" type="matrix" values="0 0 0 0 0 0 0 0 0 0 0 0 0 0 0 0 0 0 127 0" result="hardAlpha"/>
      <feOffset dy="5"/>
      <feGaussianBlur stdDeviation="50"/>
      <feComposite in2="hardAlpha" operator="out"/>
      <feColorMatrix type="matrix" values="0 0 0 0 0 0 0 0 0 0 0 0 0 0 0 0 0 0 0.25 0"/>
      <feBlend mode="normal" in2="BackgroundImageFix" result="effect1_dropShadow_45_70"/>
      <feBlend mode="normal" in="SourceGraphic" in2="effect1_dropShadow_45_70" result="shape"/>
      <feColorMatrix in="SourceAlpha" type="matrix" values="0 0 0 0 0 0 0 0 0 0 0 0 0 0 0 0 0 0 127 0" result="hardAlpha"/>
      <feOffset dy="4"/>
      <feGaussianBlur stdDeviation="5"/>
      <feComposite in2="hardAlpha" operator="arithmetic" k2="-1" k3="1"/>
      <feColorMatrix type="matrix" values="0 0 0 0 0 0 0 0 0 0 0 0 0 0 0 0 0 0 0.25 0"/>
      <feBlend mode="normal" in2="shape" result="effect2_innerShadow_45_70"/>
    </filter>
  </defs>
</svg>