<svg xmlns="http://www.w3.org/2000/svg" width="357" height="231" viewBox="0 0 357 231" fill="none">
  <path d="M356.961 49.9023C356.961 53.418 354.044 56.1719 350.739 56.1719H344.517L344.653 87.4609C344.653 87.9883 344.614 88.5156 344.556 89.043V92.207C344.556 96.5234 341.075 100.02 336.778 100.02H333.667C333.453 100.02 333.239 100.02 333.025 100C332.753 100.02 332.481 100.02 332.208 100.02L325.889 100H321.222C316.925 100 313.444 96.5039 313.444 92.1875V75C313.444 71.543 310.664 68.75 307.222 68.75H294.778C291.336 68.75 288.556 71.543 288.556 75V92.1875C288.556 96.5039 285.075 100 280.778 100H269.908C269.617 100 269.325 99.9805 269.033 99.9609C268.8 99.9805 268.567 100 268.333 100H265.222C260.925 100 257.444 96.5039 257.444 92.1875V70.3125C257.444 70.1367 257.444 69.9414 257.464 69.7656V56.1523H251.242C247.742 56.1523 245.019 53.418 245.019 49.8828C245.019 48.125 245.603 46.5625 246.964 45.1953L296.8 1.5625C298.161 0.195312 299.717 0 301.078 0C302.439 0 303.994 0.390625 305.161 1.36719L354.822 45.2148C356.378 46.582 357.156 48.1445 356.961 49.9023Z" fill="black" fill-opacity="0.55"/>
  <path d="M214.3 43.7188C214.3 41.4064 215.217 39.1887 216.848 37.5537C218.48 35.9186 220.693 35 223 35C225.307 35 227.52 35.9186 229.152 37.5537C230.783 39.1887 231.7 41.4064 231.7 43.7188C231.7 46.0311 230.783 48.2488 229.152 49.8838C227.52 51.5189 225.307 52.4375 223 52.4375C220.693 52.4375 218.48 51.5189 216.848 49.8838C215.217 48.2488 214.3 46.0311 214.3 43.7188ZM221.55 98.9375V122.188C221.55 125.403 218.958 128 215.75 128C212.542 128 209.95 125.403 209.95 122.188V81.6635L204.766 90.3096C203.117 93.0523 199.546 93.9424 196.809 92.2895C194.072 90.6365 193.184 87.0582 194.834 84.3154L205.401 66.6963C208.554 61.4469 214.209 58.2318 220.317 58.2318H225.701C231.809 58.2318 237.464 61.4469 240.617 66.6963L251.184 84.3154C252.834 87.0582 251.946 90.6365 249.209 92.2895C246.472 93.9424 242.901 93.0523 241.252 90.3096L236.05 81.6635V122.188C236.05 125.403 233.458 128 230.25 128C227.042 128 224.45 125.403 224.45 122.188V98.9375H221.55Z" fill="black" fill-opacity="0.55"/>
  <path d="M35.3333 136.875H37.3818C40.0292 141.438 44.9885 144.5 50.6667 144.5C51.9844 144.5 53.2781 144.333 54.5 144.023V171.188C54.5 173.296 52.787 175 50.6667 175C48.5463 175 46.8333 173.296 46.8333 171.188V154.413L30.5417 167.375H37.25C39.3703 167.375 41.0833 169.079 41.0833 171.188C41.0833 173.296 39.3703 175 37.25 175H20C13.651 175 8.49999 169.877 8.49999 163.562V136.935C8.49999 135.016 7.06249 133.384 5.14582 133.146L4.19947 133.027C2.10311 132.765 0.605718 130.858 0.869259 128.773C1.1328 126.688 3.04947 125.199 5.14582 125.461L6.09218 125.58C11.8422 126.295 16.1667 131.156 16.1667 136.935V147.097C20.2875 140.938 27.3312 136.875 35.3333 136.875ZM54.5 140.032C53.3021 140.449 52.0083 140.688 50.6667 140.688C47.2646 140.688 44.1979 139.21 42.0896 136.875C41.6463 136.387 41.251 135.862 40.9036 135.302C39.8016 133.539 39.1667 131.466 39.1667 129.25V115.275C39.1667 114.572 39.7297 114.012 40.4364 114H40.4604C40.8557 114 41.2271 114.191 41.4667 114.5C41.4667 114.5 41.4667 114.5 41.4667 114.512L43 116.538L46.8333 121.625H54.5L58.3333 116.538L59.8667 114.512C59.8667 114.512 59.8667 114.512 59.8667 114.5C60.1062 114.191 60.4776 114 60.8729 114H60.8969C61.6036 114.012 62.1667 114.572 62.1667 115.275V129.25C62.1667 131.311 61.6156 133.253 60.6573 134.921C59.3036 137.28 57.1114 139.115 54.5 140.032ZM48.75 129.25C48.75 128.744 48.5481 128.26 48.1886 127.902C47.8292 127.545 47.3417 127.344 46.8333 127.344C46.325 127.344 45.8375 127.545 45.478 127.902C45.1186 128.26 44.9167 128.744 44.9167 129.25C44.9167 129.756 45.1186 130.24 45.478 130.598C45.8375 130.955 46.325 131.156 46.8333 131.156C47.3417 131.156 47.8292 130.955 48.1886 130.598C48.5481 130.24 48.75 129.756 48.75 129.25ZM54.5 131.156C55.0083 131.156 55.4958 130.955 55.8553 130.598C56.2147 130.24 56.4167 129.756 56.4167 129.25C56.4167 128.744 56.2147 128.26 55.8553 127.902C55.4958 127.545 55.0083 127.344 54.5 127.344C53.9917 127.344 53.5041 127.545 53.1447 127.902C52.7853 128.26 52.5833 128.744 52.5833 129.25C52.5833 129.756 52.7853 130.24 53.1447 130.598C53.5041 130.955 53.9917 131.156 54.5 131.156Z" fill="black" fill-opacity="0.55"/>
  <path d="M92.075 180.599L95.3635 160.823C95.634 159.198 97.0434 158 98.6948 158C99.7625 158 100.759 158.499 101.4 159.354L103.806 162.562H111.223C113.031 162.562 114.767 163.29 116.049 164.573L118.611 167.125H126.583C128.477 167.125 130 168.651 130 170.547V173.969C130 180.271 124.903 185.375 118.611 185.375H108.745L108.019 189.724L92.075 180.599ZM107.222 194.514V226.438C107.222 228.961 105.186 231 102.667 231H98.1111C95.5913 231 93.5555 228.961 93.5555 226.438V210.012C90.1389 211.766 86.2667 212.75 82.1667 212.75C78.0667 212.75 74.1944 211.766 70.7778 210.012V226.438C70.7778 228.961 68.742 231 66.2222 231H61.6667C59.1469 231 57.1111 228.961 57.1111 226.438V193.616C53.0111 192.062 49.7937 188.583 48.6833 184.135L48.1423 181.925C47.5302 179.487 49.0108 177.006 51.4594 176.393C53.908 175.779 56.3708 177.262 56.983 179.715L57.5382 181.925C58.0364 183.949 59.8587 185.375 61.9514 185.375H91.2493L107.222 194.514ZM114.056 169.406C114.056 168.801 113.816 168.221 113.388 167.793C112.961 167.365 112.382 167.125 111.778 167.125C111.174 167.125 110.594 167.365 110.167 167.793C109.74 168.221 109.5 168.801 109.5 169.406C109.5 170.011 109.74 170.592 110.167 171.019C110.594 171.447 111.174 171.688 111.778 171.688C112.382 171.688 112.961 171.447 113.388 171.019C113.816 170.592 114.056 170.011 114.056 169.406Z" fill="black" fill-opacity="0.55"/>
</svg>